name rise49.5252peak65.1548fall88.8305.mot
datacolumns 19
datarows 36
range 4.65998000000000 4.71831000000000
endheader
time	ground_force1_vx	ground_force1_vy	ground_force1_vz	ground_force1_px	ground_force1_py	ground_force1_pz	ground_force2_vx	ground_force2_vy	ground_force2_vz	ground_force2_px	ground_force2_py	ground_force2_pz	ground_torque1_x	ground_torque1_y	ground_torque1_z	ground_torque2_x	ground_torque2_y	ground_torque2_z	
4.65998000000000	1.96961200000000	691.54191300000002	50.84975100000000	0.24545900000000	0.00000000000000	0.14515000000000	0.00000000000000	0.00000000000000	0.00000000000000	0.00000000000000	0.00000000000000	0.00000000000000	0.00000000000000	23.71079300000000	0.00000000000000	0.00000000000000	0.00000000000000	0.00000000000000	
4.66164800000000	1.69987400000000	691.91813600000000	50.78205600000000	0.24511800000000	0.00000000000000	0.14506700000000	0.00000000000000	0.00000000000000	0.00000000000000	0.00000000000000	0.00000000000000	0.00000000000000	0.00000000000000	23.74739900000000	0.00000000000000	0.00000000000000	0.00000000000000	0.00000000000000	
4.66331200000000	1.41867400000000	692.34885899999995	50.71894600000000	0.24478900000000	0.00000000000000	0.14498400000000	0.00000000000000	0.00000000000000	0.00000000000000	0.00000000000000	0.00000000000000	0.00000000000000	0.00000000000000	23.79089500000000	0.00000000000000	0.00000000000000	0.00000000000000	0.00000000000000	
4.66497900000000	1.12530800000000	692.83290699999998	50.66033900000000	0.24446800000000	0.00000000000000	0.14490100000000	0.00000000000000	0.00000000000000	0.00000000000000	0.00000000000000	0.00000000000000	0.00000000000000	0.00000000000000	23.84121600000000	0.00000000000000	0.00000000000000	0.00000000000000	0.00000000000000	
4.66665600000000	0.81910900000000	693.36914000000002	50.60615600000000	0.24415300000000	0.00000000000000	0.14481900000000	0.00000000000000	0.00000000000000	0.00000000000000	0.00000000000000	0.00000000000000	0.00000000000000	0.00000000000000	23.89828500000000	0.00000000000000	0.00000000000000	0.00000000000000	0.00000000000000	
4.66831100000000	0.49944700000000	693.95645500000001	50.55632300000000	0.24384100000000	0.00000000000000	0.14473700000000	0.00000000000000	0.00000000000000	0.00000000000000	0.00000000000000	0.00000000000000	0.00000000000000	0.00000000000000	23.96201800000000	0.00000000000000	0.00000000000000	0.00000000000000	0.00000000000000	
4.66998100000000	0.16573700000000	694.59379200000001	50.51076500000000	0.24352700000000	0.00000000000000	0.14465600000000	0.00000000000000	0.00000000000000	0.00000000000000	0.00000000000000	0.00000000000000	0.00000000000000	0.00000000000000	24.03231900000000	0.00000000000000	0.00000000000000	0.00000000000000	0.00000000000000	
4.67164100000000	-0.18256000000000	695.28012899999999	50.46941500000000	0.24321100000000	0.00000000000000	0.14457600000000	0.00000000000000	0.00000000000000	0.00000000000000	0.00000000000000	0.00000000000000	0.00000000000000	0.00000000000000	24.10908500000000	0.00000000000000	0.00000000000000	0.00000000000000	0.00000000000000	
4.67331200000000	-0.54593500000000	696.01449100000002	50.43220800000000	0.24288700000000	0.00000000000000	0.14449700000000	0.00000000000000	0.00000000000000	0.00000000000000	0.00000000000000	0.00000000000000	0.00000000000000	0.00000000000000	24.19219900000000	0.00000000000000	0.00000000000000	0.00000000000000	0.00000000000000	
4.67497300000000	-0.92482400000000	696.79594499999996	50.39908100000000	0.24255500000000	0.00000000000000	0.14441900000000	0.00000000000000	0.00000000000000	0.00000000000000	0.00000000000000	0.00000000000000	0.00000000000000	0.00000000000000	24.28153900000000	0.00000000000000	0.00000000000000	0.00000000000000	0.00000000000000	
4.67664600000000	-1.31961300000000	697.62360000000001	50.36997600000000	0.24221000000000	0.00000000000000	0.14434300000000	0.00000000000000	0.00000000000000	0.00000000000000	0.00000000000000	0.00000000000000	0.00000000000000	0.00000000000000	24.37697000000000	0.00000000000000	0.00000000000000	0.00000000000000	0.00000000000000	
4.67831300000000	-1.73062600000000	698.49660900000003	50.34484000000000	0.24185000000000	0.00000000000000	0.14426800000000	0.00000000000000	0.00000000000000	0.00000000000000	0.00000000000000	0.00000000000000	0.00000000000000	0.00000000000000	24.47834800000000	0.00000000000000	0.00000000000000	0.00000000000000	0.00000000000000	
4.67997700000000	-2.15813300000000	699.41416700000002	50.32362100000000	0.24147300000000	0.00000000000000	0.14419500000000	0.00000000000000	0.00000000000000	0.00000000000000	0.00000000000000	0.00000000000000	0.00000000000000	0.00000000000000	24.58552300000000	0.00000000000000	0.00000000000000	0.00000000000000	0.00000000000000	
4.68164000000000	-2.60233800000000	700.37550999999996	50.30627300000000	0.24107600000000	0.00000000000000	0.14412300000000	0.00000000000000	0.00000000000000	0.00000000000000	0.00000000000000	0.00000000000000	0.00000000000000	0.00000000000000	24.69833100000000	0.00000000000000	0.00000000000000	0.00000000000000	0.00000000000000	
4.68331300000000	-3.06338500000000	701.37991000000000	50.29275100000000	0.24065700000000	0.00000000000000	0.14405400000000	0.00000000000000	0.00000000000000	0.00000000000000	0.00000000000000	0.00000000000000	0.00000000000000	0.00000000000000	24.81660300000000	0.00000000000000	0.00000000000000	0.00000000000000	0.00000000000000	
4.68497700000000	-3.54135600000000	702.42667600000004	50.28301800000000	0.24021400000000	0.00000000000000	0.14398600000000	0.00000000000000	0.00000000000000	0.00000000000000	0.00000000000000	0.00000000000000	0.00000000000000	0.00000000000000	24.94015900000000	0.00000000000000	0.00000000000000	0.00000000000000	0.00000000000000	
4.68664000000000	-4.03626500000000	703.51515099999995	50.27703700000000	0.23974600000000	0.00000000000000	0.14392100000000	0.00000000000000	0.00000000000000	0.00000000000000	0.00000000000000	0.00000000000000	0.00000000000000	0.00000000000000	25.06881200000000	0.00000000000000	0.00000000000000	0.00000000000000	0.00000000000000	
4.68831200000000	-4.54806200000000	704.64470700000004	50.27477500000000	0.23924900000000	0.00000000000000	0.14385800000000	0.00000000000000	0.00000000000000	0.00000000000000	0.00000000000000	0.00000000000000	0.00000000000000	0.00000000000000	25.20236800000000	0.00000000000000	0.00000000000000	0.00000000000000	0.00000000000000	
4.68997400000000	-5.07663100000000	705.81474300000002	50.27620500000000	0.23872500000000	0.00000000000000	0.14379700000000	0.00000000000000	0.00000000000000	0.00000000000000	0.00000000000000	0.00000000000000	0.00000000000000	0.00000000000000	25.34062200000000	0.00000000000000	0.00000000000000	0.00000000000000	0.00000000000000	
4.69164600000000	-5.62178900000000	707.02467999999999	50.28130100000000	0.23816900000000	0.00000000000000	0.14373800000000	0.00000000000000	0.00000000000000	0.00000000000000	0.00000000000000	0.00000000000000	0.00000000000000	0.00000000000000	25.48336400000000	0.00000000000000	0.00000000000000	0.00000000000000	0.00000000000000	
4.69331200000000	-6.18329000000000	708.27395799999999	50.29004300000000	0.23758300000000	0.00000000000000	0.14368200000000	0.00000000000000	0.00000000000000	0.00000000000000	0.00000000000000	0.00000000000000	0.00000000000000	0.00000000000000	25.63037600000000	0.00000000000000	0.00000000000000	0.00000000000000	0.00000000000000	
4.69497400000000	-6.76081900000000	709.56203200000004	50.30241200000000	0.23696500000000	0.00000000000000	0.14362800000000	0.00000000000000	0.00000000000000	0.00000000000000	0.00000000000000	0.00000000000000	0.00000000000000	0.00000000000000	25.78143500000000	0.00000000000000	0.00000000000000	0.00000000000000	0.00000000000000	
4.69665500000000	-7.35400100000000	710.88836700000002	50.31839600000000	0.23631400000000	0.00000000000000	0.14357600000000	0.00000000000000	0.00000000000000	0.00000000000000	0.00000000000000	0.00000000000000	0.00000000000000	0.00000000000000	25.93631000000000	0.00000000000000	0.00000000000000	0.00000000000000	0.00000000000000	
4.69831300000000	-7.96239300000000	712.25243200000000	50.33798200000000	0.23563000000000	0.00000000000000	0.14352700000000	0.00000000000000	0.00000000000000	0.00000000000000	0.00000000000000	0.00000000000000	0.00000000000000	0.00000000000000	26.09476400000000	0.00000000000000	0.00000000000000	0.00000000000000	0.00000000000000	
4.69997500000000	-8.58549400000000	713.65370099999996	50.36116500000000	0.23491300000000	0.00000000000000	0.14348000000000	0.00000000000000	0.00000000000000	0.00000000000000	0.00000000000000	0.00000000000000	0.00000000000000	0.00000000000000	26.25655500000000	0.00000000000000	0.00000000000000	0.00000000000000	0.00000000000000	
4.70164400000000	-9.22274000000000	715.09163899999999	50.38794100000000	0.23416300000000	0.00000000000000	0.14343600000000	0.00000000000000	0.00000000000000	0.00000000000000	0.00000000000000	0.00000000000000	0.00000000000000	0.00000000000000	26.42143800000000	0.00000000000000	0.00000000000000	0.00000000000000	0.00000000000000	
4.70331500000000	-9.87351200000000	716.56570599999998	50.41831000000000	0.23338100000000	0.00000000000000	0.14339300000000	0.00000000000000	0.00000000000000	0.00000000000000	0.00000000000000	0.00000000000000	0.00000000000000	0.00000000000000	26.58915900000000	0.00000000000000	0.00000000000000	0.00000000000000	0.00000000000000	
4.70497600000000	-10.53713400000000	718.07534799999996	50.45227700000000	0.23256600000000	0.00000000000000	0.14335300000000	0.00000000000000	0.00000000000000	0.00000000000000	0.00000000000000	0.00000000000000	0.00000000000000	0.00000000000000	26.75946400000000	0.00000000000000	0.00000000000000	0.00000000000000	0.00000000000000	
4.70664100000000	-11.21287500000000	719.61999100000003	50.48984800000000	0.23172000000000	0.00000000000000	0.14331500000000	0.00000000000000	0.00000000000000	0.00000000000000	0.00000000000000	0.00000000000000	0.00000000000000	0.00000000000000	26.93209400000000	0.00000000000000	0.00000000000000	0.00000000000000	0.00000000000000	
4.70830700000000	-11.89995600000000	721.19903999999997	50.53103500000000	0.23084300000000	0.00000000000000	0.14328000000000	0.00000000000000	0.00000000000000	0.00000000000000	0.00000000000000	0.00000000000000	0.00000000000000	0.00000000000000	27.10678700000000	0.00000000000000	0.00000000000000	0.00000000000000	0.00000000000000	
4.70997900000000	-12.59755100000000	722.81187299999999	50.57585200000000	0.22993700000000	0.00000000000000	0.14324600000000	0.00000000000000	0.00000000000000	0.00000000000000	0.00000000000000	0.00000000000000	0.00000000000000	0.00000000000000	27.28327700000000	0.00000000000000	0.00000000000000	0.00000000000000	0.00000000000000	
4.71164500000000	-13.30479000000000	724.45783400000005	50.62431800000000	0.22900300000000	0.00000000000000	0.14321400000000	0.00000000000000	0.00000000000000	0.00000000000000	0.00000000000000	0.00000000000000	0.00000000000000	0.00000000000000	27.46129700000000	0.00000000000000	0.00000000000000	0.00000000000000	0.00000000000000	
4.71330800000000	-14.02076300000000	726.13623199999995	50.67645400000000	0.22804200000000	0.00000000000000	0.14318500000000	0.00000000000000	0.00000000000000	0.00000000000000	0.00000000000000	0.00000000000000	0.00000000000000	0.00000000000000	27.64058000000000	0.00000000000000	0.00000000000000	0.00000000000000	0.00000000000000	
4.71497700000000	-14.74452300000000	727.84633699999995	50.73228600000000	0.22705600000000	0.00000000000000	0.14315700000000	0.00000000000000	0.00000000000000	0.00000000000000	0.00000000000000	0.00000000000000	0.00000000000000	0.00000000000000	27.82085600000000	0.00000000000000	0.00000000000000	0.00000000000000	0.00000000000000	
4.71664800000000	-15.47509300000000	729.58737299999996	50.79184300000000	0.22604700000000	0.00000000000000	0.14313000000000	0.00000000000000	0.00000000000000	0.00000000000000	0.00000000000000	0.00000000000000	0.00000000000000	0.00000000000000	28.00185500000000	0.00000000000000	0.00000000000000	0.00000000000000	0.00000000000000	
4.71831000000000	-16.21146500000000	731.35851700000001	50.85515700000000	0.22501600000000	0.00000000000000	0.14310500000000	0.00000000000000	0.00000000000000	0.00000000000000	0.00000000000000	0.00000000000000	0.00000000000000	0.00000000000000	28.18330700000000	0.00000000000000	0.00000000000000	0.00000000000000	0.00000000000000	
